# xmcd CD database file
#
# Track frame offsets:
#	150
#	40823
#	94554
#	135449
#	177018
#	228326
#	268790
#	288506
#
# Disc length: 4136 seconds
#
# Revision: 0
# Processed by: cddbd v1.5.2PL0 Copyright (c) Steve Scherf et al.
# Submitted via: CDex 1.50Beta7
#
DISCID=64102608
DTITLE=Steve Coleman and Five Elements - Alternate Dimension Series I
DYEAR=2002
DGENRE=Jazz
TTITLE0=Common Law
TTITLE1=Cycle of Absolute Dominants
TTITLE2=Ascending Numeration
TTITLE3=Reflecion Upon Two Worlds
TTITLE4=Ascending Numeration (Alternate Take)
TTITLE5=Octagonal Dance Abstract
TTITLE6=Common Law (Alternate Take 1)
TTITLE7=Common Law (Alternate Take 2)
EXTD=YEAR: 2002
EXTT0=
EXTT1=
EXTT2=
EXTT3=
EXTT4=
EXTT5=
EXTT6=
EXTT7=
PLAYORDER=
